<svg version="1.1" id="Layer_1" xmlns="http://www.w3.org/2000/svg" xmlns:xlink="http://www.w3.org/1999/xlink" x="0px" y="0px"
	 width="100%" viewBox="0 0 1024 1024" enable-background="new 0 0 1024 1024" xml:space="preserve">
<path fill="#000000" opacity="1.000000" stroke="none" 
	d="
M110.668640,447.854858 
	C120.748466,385.735107 143.508728,329.181946 179.972855,278.407562 
	C235.775314,200.705612 309.669250,148.289886 401.583344,121.471230 
	C432.568024,112.430534 464.248138,107.858246 496.481140,106.586922 
	C568.066345,103.763466 635.843506,118.302673 699.311462,151.569855 
	C781.917847,194.868546 843.284790,258.781097 882.887329,343.318756 
	C898.725403,377.127533 909.234009,412.676514 914.985046,449.516449 
	C919.722534,479.863770 920.375793,510.439636 918.458801,541.125671 
	C914.831421,599.189880 899.109802,653.768066 871.614685,704.909668 
	C839.860901,763.972595 796.064758,812.319397 740.522949,849.917053 
	C691.108215,883.367126 636.940125,904.880798 577.992859,914.498474 
	C540.422668,920.628418 502.667694,921.635132 465.030579,917.032776 
	C375.753082,906.115723 298.216125,869.622253 232.761063,807.738342 
	C189.351410,766.697083 156.511063,718.436523 134.328339,663.016296 
	C121.157600,630.111145 112.803680,595.946228 108.504822,560.719604 
	C105.933823,539.651733 105.176506,518.558655 105.810249,497.414978 
	C106.303528,480.957672 107.740738,464.539459 110.668640,447.854858 
M762.410583,819.895142 
	C767.463867,815.553772 772.624573,811.330566 777.553528,806.852295 
	C817.897217,770.198242 849.712585,727.269348 872.613525,677.747009 
	C894.769165,629.836365 906.395508,579.391907 908.546204,526.792786 
	C909.636230,500.136536 907.952026,473.506439 903.465881,447.185394 
	C895.100647,398.104614 878.508362,351.971008 852.527588,309.378479 
	C812.291077,243.415268 757.772034,192.690552 688.599060,158.332870 
	C626.223572,127.351463 560.024414,113.898079 490.309845,118.073502 
	C461.966522,119.771072 434.138367,124.026001 406.795624,131.707825 
	C324.476990,154.834854 256.594177,199.852570 203.126511,266.436188 
	C146.126770,337.418274 118.143898,418.948547 116.492325,509.660797 
	C116.040497,534.477295 118.742340,559.105530 123.190628,583.569031 
	C137.749878,663.638123 173.990265,732.517944 230.686829,790.519836 
	C272.671326,833.470947 322.357971,864.867737 378.885925,885.327087 
	C433.285370,905.016052 489.344635,911.484070 546.898743,906.895386 
	C574.728638,904.676636 601.882141,899.251282 628.522034,891.165649 
	C677.576111,876.276794 721.867126,852.330505 762.410583,819.895142 
z"/>
<path fill="#000000" opacity="1.000000" stroke="none" 
	d="
M902.273438,486.886902 
	C906.042847,539.392944 898.902771,590.082886 881.855347,639.207458 
	C859.630371,703.251953 823.271851,758.174072 772.600708,803.420471 
	C717.438416,852.677368 653.403198,883.785400 580.644165,896.864014 
	C548.039001,902.724915 515.170837,903.882690 482.165436,901.414185 
	C419.396454,896.719604 361.057404,877.962952 307.692902,844.710876 
	C240.710251,802.973206 190.754745,745.954895 157.678314,674.208557 
	C142.809708,641.957031 132.621597,608.274902 127.013939,573.260376 
	C122.101974,542.589783 120.950813,511.760376 123.472023,480.714844 
	C127.441948,431.830170 140.373749,385.500000 161.802582,341.516174 
	C184.045609,295.861145 214.485489,256.311798 252.271240,222.468246 
	C291.474335,187.355270 335.951111,161.075897 385.767761,143.942093 
	C412.453522,134.763870 439.786530,128.567932 467.872681,125.531082 
	C485.778290,123.595016 503.705200,122.212029 521.693542,122.859924 
	C621.441956,126.452568 708.276428,161.529755 781.097534,230.158127 
	C823.579590,270.194275 855.639038,317.384796 876.709656,371.919037 
	C888.761414,403.111145 897.038391,435.235382 900.427246,468.556671 
	C901.032959,474.511810 901.649841,480.465851 902.273438,486.886902 
M314.122803,183.678253 
	C288.513763,199.213821 264.925781,217.387314 243.548767,238.355820 
	C208.804474,272.436157 181.154022,311.497620 161.269165,356.015839 
	C139.229630,405.357971 127.971291,457.100830 127.591545,511.029694 
	C127.424202,534.795959 129.674042,558.495239 134.148285,581.980164 
	C147.127579,650.107483 175.756073,710.885071 221.168686,763.095825 
	C292.704437,845.340149 383.534973,889.757080 492.339050,896.482300 
	C528.534851,898.719543 564.540039,895.464905 599.929626,887.036316 
	C682.161438,867.451599 751.084595,825.717773 805.724182,761.286560 
	C863.192505,693.519775 892.979126,614.507690 897.527100,525.990417 
	C899.218567,493.070892 895.439392,460.493164 888.054810,428.384338 
	C872.913879,362.550781 842.942566,304.416901 797.181885,254.589584 
	C728.637817,179.954147 643.518250,138.796967 542.897583,129.462540 
	C515.132629,126.886833 487.378998,128.225555 459.712036,132.053680 
	C407.853210,139.229126 359.624451,156.476990 314.122803,183.678253 
z"/>
<path fill="#000000" opacity="1.000000" stroke="none" 
	d="
M473.000000,578.192871 
	C447.678986,578.172241 422.857941,578.165100 398.036957,578.124207 
	C387.821564,578.107361 382.861969,573.246033 382.868103,563.246460 
	C382.888885,529.430664 382.991669,495.614777 382.903656,461.799347 
	C382.893494,457.893707 384.004547,455.215271 387.311584,453.055054 
	C393.236511,449.184784 398.955933,444.999908 404.705536,440.985443 
	C406.961548,443.167175 406.250397,445.277405 406.253265,447.152496 
	C406.304413,480.635864 406.297882,514.119324 406.304443,547.602783 
	C406.305817,554.651733 406.307098,554.666992 413.531769,554.667664 
	C479.832275,554.673584 546.132935,554.617249 612.432983,554.786682 
	C617.565979,554.799805 618.902710,553.263550 618.874023,548.275085 
	C618.680298,514.626343 618.773071,480.975861 618.791992,447.325928 
	C618.793030,445.522217 618.430786,443.653656 619.537231,441.727844 
	C622.782288,441.488556 624.598877,444.354858 627.199707,445.502747 
	C639.966431,451.137329 643.262878,460.622162 642.692139,474.436310 
	C641.469299,504.037537 642.333496,533.724731 642.331116,563.376770 
	C642.330261,573.806396 637.946594,578.181702 627.423279,578.184570 
	C576.115540,578.198792 524.807739,578.192078 473.000000,578.192871 
z"/>
<path fill="#000000" opacity="1.000000" stroke="none" 
	d="
M514.606079,324.761383 
	C517.707581,325.328949 519.962708,326.717529 522.182861,328.225067 
	C570.002014,360.695923 618.139709,392.687683 666.584106,424.218140 
	C668.663025,425.571198 670.834229,426.823212 672.225464,429.048492 
	C675.246155,433.880127 674.814026,439.736145 671.031372,443.830841 
	C667.182739,447.996979 661.259644,448.813568 655.996155,445.438660 
	C644.639221,438.156586 633.367065,430.739319 622.144714,423.250793 
	C588.061646,400.507629 553.935913,377.826385 520.043762,354.801483 
	C514.531921,351.056976 510.706268,350.928589 505.136292,354.811249 
	C486.011108,368.142883 466.448944,380.847595 447.055298,393.794189 
	C445.700562,394.698517 444.431427,395.808929 442.390717,395.683746 
	C441.018646,391.520020 441.847626,387.361694 441.744751,383.291168 
	C441.584930,376.963684 441.476196,370.621399 441.733704,364.301178 
	C441.943420,359.153473 438.757568,359.353333 435.215881,359.280426 
	C431.616852,359.206390 429.155151,359.585693 429.243805,364.268585 
	C429.473999,376.426727 429.214935,388.593536 429.371613,400.754059 
	C429.414795,404.107727 428.390137,406.296295 425.538361,408.171600 
	C407.168701,420.251434 388.918304,432.512512 370.578156,444.637482 
	C363.800507,449.118286 357.234955,447.902588 353.224304,441.661621 
	C349.278870,435.522156 350.837097,428.867554 357.519531,424.453064 
	C372.112427,414.812897 386.725830,405.200714 401.466675,395.789825 
	C404.657959,393.752441 405.989960,391.491547 405.933441,387.700500 
	C405.754730,375.707672 405.869751,363.709900 405.931610,351.714325 
	C405.989227,340.535858 409.827484,336.697723 420.895844,336.668488 
	C430.892395,336.642059 440.889008,336.636871 450.885559,336.651001 
	C460.041595,336.663940 463.570374,339.870392 464.392822,348.873688 
	C464.483826,349.869995 464.476837,350.881622 465.408173,351.770966 
	C467.367340,352.512726 468.728180,350.971283 470.161621,350.018799 
	C480.705353,343.012848 491.211700,335.950470 501.708557,328.874329 
	C505.493774,326.322662 509.348724,324.067535 514.606079,324.761383 
z"/>
<path fill="#000000" opacity="1.000000" stroke="none" 
	d="
M564.861206,483.792603 
	C551.340393,500.302704 535.627686,513.789307 518.196472,525.397156 
	C514.371460,527.944336 511.368744,528.176086 507.423279,525.507874 
	C490.101471,513.793823 473.879974,500.831177 460.778473,484.418854 
	C453.263763,475.005188 448.441772,464.338745 448.656158,451.893890 
	C448.894928,438.032684 457.347443,425.598083 470.193817,420.380127 
	C483.149780,415.117676 497.309998,418.140198 507.332916,428.327332 
	C509.049805,430.072327 510.708435,431.874664 512.632019,433.901306 
	C514.259705,432.080444 515.440674,430.728424 516.654419,429.406464 
	C527.414734,417.686798 543.556335,414.519562 557.150330,421.453094 
	C570.611938,428.319122 578.627991,444.838074 575.825989,459.611877 
	C574.147278,468.463348 570.343201,476.299896 564.861206,483.792603 
z"/>
<path fill="#000000" opacity="1.000000" stroke="none" 
	d="
M707.677490,638.468811 
	C701.472046,639.365784 699.463806,641.459900 699.336121,647.229553 
	C699.199829,653.388367 699.340942,659.552795 699.253540,665.713318 
	C699.178467,671.002869 696.950745,673.327881 692.196045,673.329895 
	C687.406250,673.331909 684.899536,670.986267 684.773743,665.926208 
	C684.616577,659.601868 684.787659,653.270020 684.688538,646.943420 
	C684.605225,641.623230 682.308594,638.682129 678.250977,638.364563 
	C674.082825,638.038269 670.981323,640.953857 670.656982,646.425354 
	C670.263306,653.064880 670.492798,659.739807 670.380737,666.398254 
	C670.298462,671.290405 667.642944,674.037964 663.166077,674.026550 
	C658.828430,674.015503 655.789001,671.078308 655.710815,666.401184 
	C655.515991,654.747925 655.469849,643.092102 655.374512,631.437256 
	C655.348267,628.233948 656.743713,625.886902 659.905029,625.076294 
	C664.008301,624.024231 667.491394,625.040283 669.934937,629.174561 
	C678.825928,623.274902 687.567749,622.469727 695.955811,630.570801 
	C700.206787,627.512512 704.441223,624.728638 709.909363,624.662598 
	C720.649963,624.533020 727.476135,630.167053 728.121643,640.914978 
	C728.639893,649.543762 728.344055,658.227966 728.232361,666.885315 
	C728.174072,671.401306 725.509094,673.389038 721.093689,673.334473 
	C716.780090,673.281189 713.929749,671.368896 713.768311,666.917480 
	C713.527039,660.264526 713.704285,653.597412 713.630188,646.937134 
	C713.585999,642.968323 712.309753,639.726135 707.677490,638.468811 
z"/>
<path fill="#000000" opacity="1.000000" stroke="none" 
	d="
M352.837708,661.675537 
	C352.098511,663.772095 351.525146,665.509949 350.901733,667.229736 
	C349.367371,671.462830 346.593231,673.639221 341.831329,673.391174 
	C337.290405,673.154602 334.352509,671.286194 332.838379,666.931580 
	C330.898071,661.351135 329.702972,655.485413 326.592834,649.479248 
	C323.392242,655.376892 322.509216,661.322449 320.533295,666.848938 
	C318.805878,671.680481 315.759460,673.621765 310.728607,673.434998 
	C306.723053,673.286316 303.997925,671.684937 302.729309,667.935669 
	C298.839264,656.439026 295.003143,644.923767 291.211975,633.394104 
	C289.923767,629.476379 290.999054,626.442017 295.111359,625.038818 
	C299.288055,623.613586 303.235779,625.107239 304.651093,628.974915 
	C306.476074,633.961914 307.798035,639.130737 309.482452,644.172546 
	C310.094604,646.004883 310.252838,648.132385 312.554138,649.816223 
	C315.372559,644.260254 316.647400,638.301941 318.616089,632.622437 
	C319.326935,630.571777 319.816742,628.423706 321.351593,626.812256 
	C325.212982,622.758057 332.158081,624.574280 334.114075,630.300476 
	C336.512238,637.321350 338.628510,644.438538 341.323456,652.958191 
	C343.774750,645.064758 345.770813,638.623047 347.777130,632.184509 
	C348.420807,630.118835 348.952148,627.943787 350.558502,626.396729 
	C353.154968,623.896118 356.254822,623.691711 359.321747,625.291260 
	C362.635651,627.019653 363.389160,629.966919 362.265900,633.384277 
	C359.202942,642.702942 356.079956,652.001953 352.837708,661.675537 
z"/>
<path fill="#000000" opacity="1.000000" stroke="none" 
	d="
M535.104858,633.864685 
	C535.195923,628.242065 535.231689,623.087524 535.401489,617.937439 
	C535.570618,612.805420 538.401367,610.035706 543.141235,610.181152 
	C547.723755,610.321716 550.259277,612.951904 550.358948,617.847046 
	C550.447083,622.174072 550.474182,626.505310 550.386597,630.831848 
	C550.331482,633.559631 551.406982,634.780579 554.208130,634.734192 
	C559.700439,634.643005 565.198730,634.608948 570.688354,634.767761 
	C574.057983,634.865295 575.039062,633.256958 574.947876,630.202759 
	C574.828674,626.210876 574.793884,622.207458 574.954102,618.218384 
	C575.167236,612.913940 578.225830,610.000916 583.093384,610.173340 
	C587.718811,610.337219 590.236511,613.144714 590.257507,618.505127 
	C590.318970,634.154541 590.338745,649.804382 590.282532,665.453735 
	C590.262390,671.065369 588.002197,673.368408 582.961975,673.358093 
	C577.631226,673.347229 575.114380,670.907532 574.964600,665.366272 
	C574.847778,661.040894 574.853943,656.708923 574.938843,652.382507 
	C574.997192,649.411987 573.743225,648.204468 570.747559,648.286560 
	C565.590332,648.427856 560.422302,648.461487 555.267029,648.290588 
	C551.765747,648.174561 550.446167,649.813232 550.458496,653.056396 
	C550.476257,657.717712 550.516174,662.380249 550.435242,667.040283 
	C550.358337,671.471741 547.648315,674.082825 543.239319,674.158630 
	C538.956482,674.232300 535.840637,671.579163 535.680359,667.277100 
	C535.271484,656.301819 536.064087,645.303284 535.104858,633.864685 
z"/>
<path fill="#000000" opacity="1.000000" stroke="none" 
	d="
M284.068970,663.817383 
	C279.067383,671.466919 271.510803,673.586365 263.554230,674.005554 
	C256.729004,674.365173 249.915924,673.185547 243.809692,669.680969 
	C242.249924,668.785889 240.714630,667.647095 239.560684,666.287109 
	C237.003967,663.274048 236.698837,659.714478 239.142715,656.660583 
	C241.636322,653.544434 245.163940,654.033813 248.190811,655.943115 
	C251.482681,658.019592 254.835556,659.729187 258.706543,660.295471 
	C259.692322,660.439697 260.685883,660.602905 261.678101,660.618713 
	C266.789948,660.700500 271.495544,658.294922 271.329285,655.312805 
	C271.069885,650.660156 267.016235,649.921265 263.542908,648.848755 
	C258.776581,647.376831 253.825836,646.390869 249.217239,644.541138 
	C236.831238,639.569702 234.605331,621.972473 245.158417,613.771790 
	C253.715942,607.121826 271.392242,606.843750 280.169464,613.221008 
	C283.806183,615.863342 285.250275,620.122437 283.345276,623.198059 
	C280.885437,627.169434 277.336395,626.787415 273.678314,625.208313 
	C269.825287,623.544983 265.927673,622.200256 261.641968,622.342773 
	C258.298248,622.454102 254.948074,622.944824 254.322723,626.855896 
	C253.650009,631.063232 256.912720,632.641663 260.238098,633.637817 
	C264.856201,635.021240 269.605072,635.990112 274.175446,637.505859 
	C281.151672,639.819458 286.082214,644.177612 286.828217,651.992615 
	C287.217529,656.071106 286.281464,659.919250 284.068970,663.817383 
z"/>
<path fill="#000000" opacity="1.000000" stroke="none" 
	d="
M739.419983,663.374878 
	C730.917480,647.080078 737.739258,629.169617 753.634766,625.193359 
	C767.365234,621.758728 780.391785,629.432312 782.712341,642.322144 
	C783.866272,648.731873 780.653198,653.434448 774.133606,654.566528 
	C768.352051,655.570496 762.492676,654.902771 756.670654,655.079773 
	C754.903809,655.133484 753.070435,654.766174 751.354919,655.597046 
	C753.552490,661.203796 758.714661,663.222839 765.939880,661.384033 
	C767.705139,660.934875 769.392822,660.163574 771.094666,659.486389 
	C774.640320,658.075500 777.792419,658.366394 779.595032,662.087097 
	C781.430298,665.875305 779.341919,668.730530 776.293213,670.477112 
	C767.464294,675.535156 758.233398,675.679688 748.940552,671.736145 
	C745.011841,670.068909 741.893616,667.338989 739.419983,663.374878 
M755.791504,637.991516 
	C753.204956,639.351685 751.112732,641.043091 751.298645,644.577637 
	C756.226440,645.463684 761.025208,645.098877 765.784119,644.903503 
	C769.340576,644.757507 768.874573,642.494263 767.357422,640.464233 
	C764.541199,636.695984 760.548096,636.942871 755.791504,637.991516 
z"/>
<path fill="#000000" opacity="1.000000" stroke="none" 
	d="
M435.693054,656.535950 
	C439.522980,662.309326 444.851166,662.423767 450.491180,661.136841 
	C452.250977,660.735291 453.924896,659.885986 455.581451,659.119202 
	C458.536041,657.751770 461.238007,658.071045 463.146088,660.716797 
	C465.219391,663.591675 464.524353,666.512024 462.010864,668.778442 
	C456.556976,673.696228 449.798828,674.529846 442.867920,674.221802 
	C430.454529,673.670044 421.255707,664.748962 419.765503,652.082275 
	C418.270050,639.371155 424.985138,628.598450 436.445343,625.323608 
	C449.351807,621.635498 462.796356,628.272461 465.851959,639.840393 
	C468.181305,648.658752 464.063995,654.229858 455.011505,654.386902 
	C449.853333,654.476379 444.690948,654.342957 439.533936,654.461792 
	C438.087463,654.495056 435.985291,653.596619 435.693054,656.535950 
M436.239288,640.560669 
	C435.537079,641.655701 434.561279,642.675842 435.326141,644.376892 
	C439.312866,645.228333 443.449158,644.673645 447.550659,644.701599 
	C449.094086,644.712097 451.145691,645.215210 451.602448,642.883545 
	C452.009491,640.805847 450.816315,639.266357 449.106903,638.424255 
	C444.679443,636.242981 440.461151,636.591858 436.239288,640.560669 
z"/>
<path fill="#000000" opacity="1.000000" stroke="none" 
	d="
M398.664124,660.790405 
	C400.441406,660.115234 401.839203,659.574341 403.223389,659.000549 
	C406.336731,657.709900 409.249420,657.756104 411.012360,661.015991 
	C412.911987,664.528687 411.671112,667.667969 408.579041,669.717773 
	C403.290070,673.223938 397.260437,674.511658 390.974487,674.218018 
	C377.515900,673.589355 368.353607,665.071960 367.187195,651.242065 
	C366.245728,640.079285 371.492401,628.980469 383.842926,625.334106 
	C397.957581,621.166870 411.205231,628.604797 413.695984,642.185608 
	C414.930359,648.915833 410.866669,654.180725 404.065247,654.330627 
	C397.108490,654.484009 390.145752,654.364563 383.089722,654.364563 
	C384.347229,660.862427 389.707764,662.993225 398.664124,660.790405 
M385.437988,638.684875 
	C383.950256,640.145325 382.033752,641.402893 382.911377,644.246765 
	C387.247345,645.276123 391.674957,644.637512 396.060455,644.699524 
	C397.360474,644.717896 398.825500,644.740662 399.330109,643.125244 
	C399.783325,641.674438 398.968262,640.524170 398.025726,639.602173 
	C394.415100,636.070251 390.290253,636.748840 385.437988,638.684875 
z"/>
<path fill="#000000" opacity="1.000000" stroke="none" 
	d="
M621.116699,624.689392 
	C639.122864,624.898315 650.341919,637.708191 647.422791,654.205078 
	C645.122192,667.206360 634.059814,675.469421 620.662903,674.193420 
	C607.251099,672.915894 597.880127,662.265930 598.358887,648.845154 
	C598.854492,634.952576 607.109253,626.014893 621.116699,624.689392 
M614.393982,654.896790 
	C617.489868,660.167358 620.670044,661.874512 625.771851,660.558777 
	C630.650696,659.300537 632.590210,655.659302 632.833923,650.884521 
	C633.145996,644.769714 630.699158,640.289673 626.176758,638.737732 
	C620.640869,636.838013 615.768982,639.289124 614.000916,644.885376 
	C613.020630,647.988159 612.983826,651.086670 614.393982,654.896790 
z"/>
<path fill="#000000" opacity="1.000000" stroke="none" 
	d="
M505.295837,666.042175 
	C505.300262,670.436035 502.991699,672.417542 499.424286,673.458008 
	C487.723083,676.870483 478.582092,670.495850 477.999725,658.318115 
	C477.761353,653.333435 477.862732,648.330933 477.867981,643.336670 
	C477.870850,640.608337 477.488281,638.489990 474.000092,638.163208 
	C470.823822,637.865723 469.675751,635.396912 469.481110,632.472107 
	C469.282623,629.489746 470.297150,626.786255 473.388245,626.403870 
	C477.956848,625.838623 477.910583,623.007385 477.817200,619.639099 
	C477.698547,615.359680 479.197845,612.130371 483.988770,611.440674 
	C489.330078,610.671753 492.550903,613.333313 492.290527,619.108643 
	C492.080139,623.774048 492.956421,626.246277 498.402130,625.946777 
	C502.204468,625.737732 504.566772,628.321777 504.499481,632.343384 
	C504.431915,636.379578 502.203491,638.669922 498.156921,638.291565 
	C493.381500,637.844971 491.951233,639.898315 492.316986,644.356384 
	C492.615570,647.995605 492.326813,651.679077 492.445404,655.338074 
	C492.566925,659.086914 494.188538,661.272156 498.384674,660.807434 
	C501.980865,660.409119 504.587799,661.718872 505.295837,666.042175 
z"/>
</svg>